<?xml version="1.0" standalone="no"?>
<!DOCTYPE svg PUBLIC "-//W3C//DTD SVG 20010904//EN"
 "http://www.w3.org/TR/2001/REC-SVG-20010904/DTD/svg10.dtd">
<svg version="1.0" xmlns="http://www.w3.org/2000/svg"
 width="1139.000000pt" height="1039.000000pt" viewBox="0 0 1139.000000 1039.000000"
 preserveAspectRatio="xMidYMid meet">
<metadata>
House Logo SVG
</metadata>
<g transform="translate(0.000000,1039.000000) scale(0.100000,-0.100000)"
fill="#000000" stroke="none">
<path d="M4875 8216 l-750 -503 -3 -337 -2 -337 769 515 768 515 593 -359 593
-359 41 17 c23 9 160 62 306 117 l265 101 3 -153 c1 -84 6 -153 9 -153 4 0 27
7 50 16 l43 17 0 158 c0 88 -4 159 -9 159 -4 0 -21 -5 -38 -10 -28 -10 -75 17
-947 545 -504 305 -922 555 -929 555 -7 -1 -349 -227 -762 -504z"/>
<path d="M8122 6894 l3 -317 65 -41 c36 -22 214 -128 395 -236 l330 -196 5
-183 5 -183 157 -69 c87 -38 160 -69 163 -69 3 0 5 68 5 150 0 83 2 150 5 150
3 0 116 -65 251 -145 134 -80 246 -145 249 -145 3 0 5 143 5 318 l0 319 -646
384 c-356 211 -663 391 -683 400 -20 9 -88 48 -152 87 -64 38 -126 75 -138 81
l-21 12 2 -317z"/>
<path d="M8920 3015 l0 -75 -965 0 -965 0 0 -165 0 -165 1130 0 1130 0 0 233
0 232 -133 0 c-72 0 -147 4 -164 7 l-33 8 0 -75z"/>
<path d="M4750 2775 l0 -165 318 2 317 3 3 163 2 162 -320 0 -320 0 0 -165z"/>
<path d="M4701 1818 c-66 -7 -121 -25 -121 -38 0 -43 301 -63 468 -31 88 17
81 45 -15 63 -55 10 -64 9 -114 -14 l-55 -25 -34 22 c-50 31 -57 32 -129 23z"/>
</g>
</svg>
